RBDS021runT35_grf
version=1
nRows=18
nColumns=19
inDegrees=no
endheader
time	ground_force_r_vx	ground_force_r_vy	ground_force_r_vz	ground_force_r_px	ground_force_r_py	ground_force_r_pz	ground_force_r_mx	ground_force_r_my	ground_force_r_mz	ground_force_l_vx	ground_force_l_vy	ground_force_l_vz	ground_force_l_px	ground_force_l_py	ground_force_l_pz	ground_force_l_mx	ground_force_l_my	ground_force_l_mz
     22.49800000	   -153.69749510	   1193.14162498	     24.61989978	      2.21038745	      0.00000000	      1.01687143	      0.00000000	      7.58666954	      0.00000000	      0.00000000	      0.00000000	      0.00000000	      0.00000000	      0.00000000	      0.00000000	      0.00000000	      0.00000000	      0.00000000
     22.49900000	   -156.42860273	   1211.53431488	     24.50603872	      2.20783822	      0.00000000	      1.01635789	      0.00000000	      7.77127073	      0.00000000	      0.00000000	      0.00000000	      0.00000000	      0.00000000	      0.00000000	      0.00000000	      0.00000000	      0.00000000	      0.00000000
     22.50000000	   -159.15971036	   1229.92700478	     24.39217766	      2.20528899	      0.00000000	      1.01584435	      0.00000000	      7.95587191	      0.00000000	      0.00000000	      0.00000000	      0.00000000	      0.00000000	      0.00000000	      0.00000000	      0.00000000	      0.00000000	      0.00000000
     22.50100000	   -161.61129471	   1246.67248889	     24.01863847	      2.20265025	      0.00000000	      1.01545088	      0.00000000	      8.10356955	      0.00000000	      0.00000000	      0.00000000	      0.00000000	      0.00000000	      0.00000000	      0.00000000	      0.00000000	      0.00000000	      0.00000000
     22.50200000	   -164.06287905	   1263.41797300	     23.64509928	      2.20001151	      0.00000000	      1.01505741	      0.00000000	      8.25126718	      0.00000000	      0.00000000	      0.00000000	      0.00000000	      0.00000000	      0.00000000	      0.00000000	      0.00000000	      0.00000000	      0.00000000
     22.50300000	   -166.51446340	   1280.16345711	     23.27156009	      2.19737277	      0.00000000	      1.01466394	      0.00000000	      8.39896481	      0.00000000	      0.00000000	      0.00000000	      0.00000000	      0.00000000	      0.00000000	      0.00000000	      0.00000000	      0.00000000	      0.00000000
     22.50400000	   -168.73523112	   1295.85242167	     22.71019193	      2.19467865	      0.00000000	      1.01434790	      0.00000000	      8.52147723	      0.00000000	      0.00000000	      0.00000000	      0.00000000	      0.00000000	      0.00000000	      0.00000000	      0.00000000	      0.00000000	      0.00000000
     22.50500000	   -170.84059053	   1311.01312646	     22.05490929	      2.19195685	      0.00000000	      1.01407057	      0.00000000	      8.63139706	      0.00000000	      0.00000000	      0.00000000	      0.00000000	      0.00000000	      0.00000000	      0.00000000	      0.00000000	      0.00000000	      0.00000000
     22.50600000	   -172.94594994	   1326.17383125	     21.39962666	      2.18923504	      0.00000000	      1.01379325	      0.00000000	      8.74131688	      0.00000000	      0.00000000	      0.00000000	      0.00000000	      0.00000000	      0.00000000	      0.00000000	      0.00000000	      0.00000000	      0.00000000
     22.50700000	   -174.91386408	   1340.83407795	     20.64771671	      2.18648786	      0.00000000	      1.01355259	      0.00000000	      8.83886070	      0.00000000	      0.00000000	      0.00000000	      0.00000000	      0.00000000	      0.00000000	      0.00000000	      0.00000000	      0.00000000	      0.00000000
     22.50800000	   -176.60688770	   1354.49340845	     19.70255214	      2.18368991	      0.00000000	      1.01338527	      0.00000000	      8.91165252	      0.00000000	      0.00000000	      0.00000000	      0.00000000	      0.00000000	      0.00000000	      0.00000000	      0.00000000	      0.00000000	      0.00000000
     22.50900000	   -178.29991131	   1368.15273896	     18.75738757	      2.18089196	      0.00000000	      1.01321795	      0.00000000	      8.98444434	      0.00000000	      0.00000000	      0.00000000	      0.00000000	      0.00000000	      0.00000000	      0.00000000	      0.00000000	      0.00000000	      0.00000000
     22.51000000	   -179.99293492	   1381.81206947	     17.81222300	      2.17809401	      0.00000000	      1.01305063	      0.00000000	      9.05723615	      0.00000000	      0.00000000	      0.00000000	      0.00000000	      0.00000000	      0.00000000	      0.00000000	      0.00000000	      0.00000000	      0.00000000
     22.51100000	   -181.21091374	   1394.06924445	     16.58375466	      2.17522697	      0.00000000	      1.01298520	      0.00000000	      9.09501517	      0.00000000	      0.00000000	      0.00000000	      0.00000000	      0.00000000	      0.00000000	      0.00000000	      0.00000000	      0.00000000	      0.00000000
     22.51200000	   -182.42889256	   1406.32641944	     15.35528632	      2.17235992	      0.00000000	      1.01291977	      0.00000000	      9.13279418	      0.00000000	      0.00000000	      0.00000000	      0.00000000	      0.00000000	      0.00000000	      0.00000000	      0.00000000	      0.00000000	      0.00000000
     22.51300000	   -183.64687138	   1418.58359442	     14.12681798	      2.16949287	      0.00000000	      1.01285434	      0.00000000	      9.17057320	      0.00000000	      0.00000000	      0.00000000	      0.00000000	      0.00000000	      0.00000000	      0.00000000	      0.00000000	      0.00000000	      0.00000000
     22.51400000	   -184.51040675	   1429.97886357	     12.72354092	      2.16658436	      0.00000000	      1.01285028	      0.00000000	      9.18729322	      0.00000000	      0.00000000	      0.00000000	      0.00000000	      0.00000000	      0.00000000	      0.00000000	      0.00000000	      0.00000000	      0.00000000
     22.51500000	   -185.19672040	   1440.94317979	     11.23285949	      2.16365513	      0.00000000	      1.01287691	      0.00000000	      9.19348374	      0.00000000	      0.00000000	      0.00000000	      0.00000000	      0.00000000	      0.00000000	      0.00000000	      0.00000000	      0.00000000	      0.00000000
